<svg width="22" height="25" viewBox="0 0 22 25" fill="none" xmlns="http://www.w3.org/2000/svg">
<path d="M21.875 3.57144V5.80356C21.875 7.77065 16.9759 9.375 10.9375 9.375C4.89907 9.375 0 7.77065 0 5.80356V3.57144C0 1.60435 4.89907 0 10.9375 0C16.9759 0 21.875 1.60435 21.875 3.57144ZM21.875 8.59375V13.6161C21.875 15.5832 16.9759 17.1875 10.9375 17.1875C4.89907 17.1875 0 15.5832 0 13.6161V8.59375C2.34985 10.2121 6.65078 10.9654 10.9375 10.9654C15.2242 10.9654 19.5251 10.2121 21.875 8.59375ZM21.875 16.4062V21.4286C21.875 23.3957 16.9759 25 10.9375 25C4.89907 25 0 23.3957 0 21.4286V16.4062C2.34985 18.0246 6.65078 18.7779 10.9375 18.7779C15.2242 18.7779 19.5251 18.0246 21.875 16.4062Z" fill="#FFBF0B"/>
</svg>
