<svg width="32" height="43" viewBox="0 0 32 43" fill="none" xmlns="http://www.w3.org/2000/svg">
<path d="M23.2939 26.2784C24.1247 25.7157 25.2776 25.2286 25.2776 25.2286C25.2776 25.2286 21.9969 25.8165 18.7332 26.0852C14.7405 26.4127 10.451 26.4799 8.29783 26.1944C3.20304 25.5225 11.0953 23.6665 11.0953 23.6665C11.0953 23.6665 8.03503 23.4649 4.26269 25.2622C-0.187824 27.3953 15.283 28.3695 23.2939 26.2784ZM16.0544 23.5825C14.4438 19.9964 9.00991 16.847 16.0544 11.3377C24.8419 4.46791 20.3354 0 20.3354 0C22.158 7.09659 13.9267 9.24656 10.9512 13.6557C8.92514 16.6707 11.943 19.904 16.0544 23.5825ZM25.7693 8.78465C25.7778 8.78465 10.9173 12.4631 18.0127 20.5591C20.1065 22.9442 17.4617 25.0942 17.4617 25.0942C17.4617 25.0942 22.7768 22.3731 20.3354 18.9718C18.0551 15.7973 16.3088 14.2184 25.7693 8.78465ZM25.2522 31.5021C25.2058 31.5821 25.1488 31.6556 25.0826 31.7205C35.9588 28.8902 31.9576 21.7349 26.7611 23.5489C26.4804 23.6511 26.2379 23.8357 26.066 24.078C26.3694 23.9692 26.6813 23.8849 26.9985 23.8261C29.6264 23.2802 33.3987 27.3114 25.2522 31.5021ZM29.25 36.7343C29.25 36.7343 30.4792 37.7337 27.9021 38.5147C22.9939 39.9844 7.4891 40.4295 3.1827 38.5735C1.63138 37.91 4.53905 36.9778 5.45458 36.7847C6.40403 36.5831 6.95504 36.6167 6.95504 36.6167C5.23418 35.4157 -4.17549 38.9766 2.17392 39.9928C19.4877 42.7811 33.7429 38.7415 29.25 36.7343ZM10.2984 33.2574C3.6269 35.105 14.359 38.9178 22.8531 35.315C22.0247 34.9961 21.225 34.6084 20.4626 34.156C16.6733 34.8699 14.9185 34.9202 11.4768 34.5339C8.63691 34.2148 10.2984 33.2574 10.2984 33.2574ZM25.5404 41.4205C18.8689 42.6635 10.6375 42.5207 5.76315 41.7229C5.76315 41.7145 6.76346 42.5375 11.9006 42.8651C19.7166 43.3606 31.7203 42.5879 32 38.9262C32 38.9262 31.4575 40.312 25.5404 41.4205ZM21.8443 29.6461C16.8259 30.6035 13.9182 30.5783 10.2476 30.2004C7.40772 29.9064 9.26422 28.5459 9.26422 28.5459C1.90604 30.9646 13.3502 33.7025 23.633 30.7211C22.9684 30.4886 22.3595 30.1226 21.8443 29.6461Z" fill="#6A4CE2"/>
</svg>
