<svg width="31" height="25" viewBox="0 0 31 25" fill="none" xmlns="http://www.w3.org/2000/svg">
<path d="M31 12.8906V12.1094C31 11.6777 30.6532 11.3281 30.225 11.3281H16.6625V9.375H20.15C21.0059 9.375 21.7 8.67529 21.7 7.8125V1.5625C21.7 0.699707 21.0059 0 20.15 0H10.85C9.99411 0 9.3 0.699707 9.3 1.5625V7.8125C9.3 8.67529 9.99411 9.375 10.85 9.375H14.3375V11.3281H0.775C0.346812 11.3281 0 11.6777 0 12.1094V12.8906C0 13.3223 0.346812 13.6719 0.775 13.6719H5.8125V15.625H3.1C2.24411 15.625 1.55 16.3247 1.55 17.1875V23.4375C1.55 24.3003 2.24411 25 3.1 25H10.85C11.7059 25 12.4 24.3003 12.4 23.4375V17.1875C12.4 16.3247 11.7059 15.625 10.85 15.625H8.1375V13.6719H22.8625V15.625H20.15C19.2941 15.625 18.6 16.3247 18.6 17.1875V23.4375C18.6 24.3003 19.2941 25 20.15 25H27.9C28.7559 25 29.45 24.3003 29.45 23.4375V17.1875C29.45 16.3247 28.7559 15.625 27.9 15.625H25.1875V13.6719H30.225C30.6532 13.6719 31 13.3223 31 12.8906ZM12.4 6.25V3.125H18.6V6.25H12.4ZM9.3 21.875H4.65V18.75H9.3V21.875ZM26.35 21.875H21.7V18.75H26.35V21.875Z" fill="#62E962"/>
</svg>
