<svg width="25" height="25" viewBox="0 0 25 25" fill="none" xmlns="http://www.w3.org/2000/svg">
<path d="M21.8906 11.0161C23.2026 11.0249 23.6274 10.6533 23.791 10.4121C24.3999 9.6152 23.4463 8.08785 21.2104 6.92916C22.0776 5.28951 22.6807 3.81979 22.9849 2.76412C23.1499 2.18649 23.0381 1.83639 23.0068 1.77535C22.9229 2.28903 22.2329 4.14157 20.6533 6.66061C19.4326 6.11276 17.8936 5.67916 16.0747 5.4985C15.6382 4.67135 14.3716 2.38034 13.1216 1.15621C12.2993 0.348109 11.6411 0.0517218 11.1274 0.0102179H11.125C10.4497 -0.0654657 10.0181 0.295862 9.78711 0.547327C8.94727 1.45211 8.59912 2.93356 8.56641 4.65231C8.21289 4.04928 7.72803 3.44967 7.1748 3.38619H7.16602C6.15723 3.21627 5.2915 4.81295 5.4082 7.35543C3.53516 7.42281 1.94141 7.63619 0.867187 7.90377C0.383789 8.0234 0.0751953 8.25875 0 8.37838C0.0488281 8.35983 1.09375 7.92819 5.44727 7.92819C5.70215 10.5161 6.8999 12.8999 6.7168 12.4785C6.2417 13.2304 4.84961 15.5234 4.40674 17.249C4.12012 18.3662 4.19336 19.0854 4.41406 19.5507C4.68604 20.1733 5.21533 20.3672 5.54688 20.4423C6.76758 20.7212 8.25098 20.2651 9.78027 19.4101C9.4126 20.0371 9.10156 20.8022 9.33789 21.331C9.69482 22.2905 11.5103 22.2422 13.6562 20.8696C14.6416 22.4409 15.6128 23.6987 16.376 24.4887C16.5013 24.6238 16.6451 24.7404 16.8032 24.8349C17.0542 24.9917 17.2222 24.9995 17.2222 24.9995C16.8198 24.6699 15.562 23.144 14.1685 20.518C15.2534 19.7368 16.3975 18.6201 17.4629 17.1357C23.46 17.3603 24.4595 15.9267 24.6895 15.5908C25.4058 14.6201 24.8569 12.7861 21.8906 11.0161ZM18.0894 16.2026C19.252 14.3613 19.5708 12.8935 19.5273 11.6943C20.8877 12.5522 21.8311 13.5293 21.9229 14.5669C21.9785 15.1982 21.5273 15.9887 18.0894 16.2026ZM10.5767 18.9297C11.0532 18.6255 11.5303 18.289 12.0024 17.9292C12.3286 18.58 12.6665 19.2036 13.0083 19.7939C11.0259 20.8613 9.64697 20.417 10.5767 18.9297ZM21.0747 10.563C20.5723 10.3022 20.0415 10.0581 19.4937 9.82809C19.8817 9.23874 20.252 8.63789 20.604 8.02633C22.5112 9.20309 22.8452 10.623 21.0747 10.563ZM13.6177 19.4331C13.3486 18.8789 13.0806 18.2856 12.812 17.6538C14.9238 17.7158 15.8599 16.7392 15.9019 16.6572C15.9019 16.6606 14.6812 17.4209 12.8486 17.2553C14.3446 16.0058 15.7338 14.6339 17.002 13.1538C17.4271 12.6554 17.8328 12.1491 18.2192 11.6347C18.2017 11.6206 18.144 11.4882 17.4131 11.0488C14.8887 13.9917 12.416 15.8339 10.9312 16.7089C9.92578 16.163 8.93701 15.1572 8.21094 13.7065C7.23438 11.7573 6.74609 9.68356 6.66943 8.03903C7.27002 8.08346 7.90332 8.14498 8.56641 8.22848C7.47803 10.0254 7.86377 11.3047 7.90869 11.3647C7.90869 11.3613 7.8623 9.94039 8.89209 8.45602C9.33092 11.019 10.0628 13.523 11.0732 15.9189C11.1187 15.9004 11.1631 15.9619 11.9849 15.5161C10.6992 11.8798 10.3364 8.7695 10.3247 7.04782C11.3013 6.44137 12.6772 6.08102 14.3105 6.17819C16.4868 6.30856 18.5273 6.92282 19.9902 7.6777C19.6423 8.18746 19.2625 8.71595 18.8511 9.26315C17.8389 7.42135 16.5435 7.12057 16.4653 7.12838C16.4707 7.12838 17.73 7.81539 18.4927 9.43405C16.6618 8.7621 14.7779 8.24419 12.8608 7.88571C12.2229 7.7675 11.5815 7.66898 10.9375 7.5903C10.9341 7.61227 10.8491 7.68063 10.832 8.58297C14.6343 9.29049 17.5044 10.5307 18.9976 11.3764C19.0337 12.5263 18.6582 13.8964 17.7568 15.2617C16.5557 17.0835 15.0034 18.5444 13.6177 19.4331ZM14.9556 5.4194C12.7798 5.33834 11.3628 5.78219 10.332 6.42867C10.4297 3.87496 11.3726 2.69918 12.1978 2.75289C13.023 2.54586 14.8784 5.29977 14.9556 5.4194ZM8.57617 5.57077C8.59961 6.16207 8.65381 6.77291 8.73291 7.39108C8.02246 7.34957 7.32959 7.33004 6.6626 7.32955C6.65869 7.48776 6.65674 4.83932 7.86719 4.90817H7.87158C8.15283 4.96139 8.39062 5.2441 8.57617 5.57077ZM7.20605 13.4809C8.21973 15.4194 9.32031 16.4384 10.3921 17.0117C8.10742 18.2207 6.60645 17.9882 6.24561 17.2319C6.23584 17.2216 5.70215 16.4848 7.20605 13.4814V13.4809Z" fill="#DC2863"/>
</svg>
